<svg xmlns="http://www.w3.org/2000/svg" xmlns:xlink="http://www.w3.org/1999/xlink" version="1.1" width="940" height="788" viewBox="0 0 940 788" xml:space="preserve">
<desc>Created with Fabric.js 3.5.0</desc>
<defs>
</defs>
<rect x="0" y="0" width="100%" height="100%" fill="#ffffff"/>
<g transform="matrix(1 0 0 1 379.9 407.93)" style="" id="838922">
		
<path xml:space="preserve" font-family="Mrs Saint Delafield" font-size="722" style="stroke: none; stroke-width: 0; stroke-dasharray: none; stroke-linecap: butt; stroke-dashoffset: 0; stroke-linejoin: miter; stroke-miterlimit: 4; is-custom-font: none; font-file-url: none; fill: rgb(0,0,0); fill-rule: nonzero; opacity: 1; white-space: pre;" d="M-104.69-36.00L-104.69-36.00Q-66.42-36.00-20.94-48.27L-20.94-48.27Q64.26-145.74 160.64-213.25Q257.03-280.76 323.46-280.76L323.46-280.76Q356.67-280.76 356.67-264.15L356.67-264.15Q356.67-241.77 306.13-199.89Q255.59-158.02 174.72-113.97Q93.86-69.93 15.88-43.94L15.88-43.94Q-42.60 23.93-78.70 87.46Q-114.80 151.00-114.80 192.15L-114.80 192.15Q-114.80 249.91-41.15 249.91L-41.15 249.91Q-0.00 249.91 49.82 223.92Q99.64 197.93 132.13 172.66L132.13 172.66Q139.35 167.61 144.76 167.61Q150.18 167.61 150.18 173.38L150.18 173.38Q150.18 176.99 147.29 179.88L147.29 179.88Q113.35 204.43 87.00 220.31Q60.65 236.20 18.05 251.72Q-24.55 267.24-63.54 267.24L-63.54 267.24Q-154.51 267.24-154.51 197.21L-154.51 197.21Q-154.51 112.73-37.54-28.78L-37.54-28.78Q-72.20-20.11-103.97-17.95L-103.97-17.95Q-112.63-19.39-112.63-27.33Q-112.63-35.28-104.69-36.00ZM301.07-260.54L301.07-260.54Q258.48-260.54 183.03-203.86Q107.58-147.19 33.93-64.88L33.93-64.88Q101.08-88.70 169.31-127.33Q237.54-165.96 278.69-200.25Q319.85-234.55 319.85-250.43L319.85-250.43Q319.85-260.54 301.07-260.54Z"/></g>
<g transform="matrix(1 0 0 1 338.5777 540.2179)" style="" id="312181">
		
<path xml:space="preserve" font-family="Mrs Saint Delafield" font-size="635" style="stroke: none; stroke-width: 0; stroke-dasharray: none; stroke-linecap: butt; stroke-dashoffset: 0; stroke-linejoin: miter; stroke-miterlimit: 4; is-custom-font: none; font-file-url: none; fill: rgb(0,0,0); fill-rule: nonzero; opacity: 1; white-space: pre;" d="M44.13-177.71L44.13-177.71L-96.84-184.70Q-98.11-184.70-102.55-180.89Q-107.00-177.08-110.17-177.08Q-113.35-177.08-114.62-177.71L-114.62-177.71Q-152.08-191.05-152.08-210.10L-152.08-210.10Q-152.08-219.62-141.29-219.62L-141.29-219.62Q-134.94-219.62-59.05-209.78Q16.83-199.94 104.46-199.94Q192.09-199.94 272.73-209.46L272.73-209.46Q358.46-283.76 442.91-283.76L442.91-283.76Q477.84-283.76 477.84-267.25L477.84-267.25Q477.84-224.07 282.26-195.49L282.26-195.49Q217.49-130.72 125.41 15.96L125.41 15.96Q91.12 69.94 57.47 120.10L57.47 120.10Q-16.83 230.59-63.82 230.59L-63.82 230.59Q-80.96 230.59-80.96 215.67Q-80.96 200.75-68.26 181.06L-68.26 181.06Q-56.20 162.01-49.21 162.01L-49.21 162.01Q-48.58 162.01-48.58 162.01L-48.58 162.01Q-40.32 162.01-40.32 171.54L-40.32 171.54L-42.86 183.60Q-42.86 186.78-40.32 186.78L-40.32 186.78Q-6.67 186.78 73.98 49.62L73.98 49.62Q106.36-5.63 156.53-76.11Q206.69-146.60 253.68-191.68L253.68-191.68Q143.83-177.71 44.13-177.71ZM427.67-271.69L427.67-271.69Q366.71-271.69 301.31-213.27L301.31-213.27Q348.30-220.26 382.27-230.42Q416.24-240.58 430.21-249.47Q444.18-258.36 444.18-265.02Q444.18-271.69 427.67-271.69Z"/></g>
</svg>